<svg width="15" height="18" viewBox="0 0 15 18" fill="none" xmlns="http://www.w3.org/2000/svg">
<g clip-path="url(#clip0_50_262)">
<path d="M7.50342 4.72096C5.37395 4.72096 3.65632 6.4386 3.65632 8.56806C3.65632 10.6975 5.37395 12.4152 7.50342 12.4152C9.63288 12.4152 11.3505 10.6975 11.3505 8.56806C11.3505 6.4386 9.63288 4.72096 7.50342 4.72096ZM7.50342 11.0692C6.1273 11.0692 5.0023 9.94753 5.0023 8.56806C5.0023 7.1886 6.12395 6.06695 7.50342 6.06695C8.88288 6.06695 10.0045 7.1886 10.0045 8.56806C10.0045 9.94753 8.87953 11.0692 7.50342 11.0692ZM12.4052 4.5636C12.4052 5.06248 12.0034 5.46092 11.5079 5.46092C11.009 5.46092 10.6106 5.05913 10.6106 4.5636C10.6106 4.06806 11.0123 3.66628 11.5079 3.66628C12.0034 3.66628 12.4052 4.06806 12.4052 4.5636ZM14.9532 5.47431C14.8963 4.2723 14.6217 3.20757 13.7411 2.33034C12.8639 1.45311 11.7992 1.17855 10.5972 1.11829C9.35833 1.04797 5.64516 1.04797 4.40632 1.11829C3.20766 1.17521 2.14293 1.44976 1.26235 2.32699C0.381766 3.20422 0.110561 4.26896 0.050293 5.47096C-0.0200195 6.7098 -0.0200195 10.423 0.050293 11.6618C0.107213 12.8638 0.381766 13.9286 1.26235 14.8058C2.14293 15.683 3.20431 15.9576 4.40632 16.0178C5.64516 16.0882 9.35833 16.0882 10.5972 16.0178C11.7992 15.9609 12.8639 15.6864 13.7411 14.8058C14.6184 13.9286 14.8929 12.8638 14.9532 11.6618C15.0235 10.423 15.0235 6.71315 14.9532 5.47431ZM13.3527 12.9911C13.0916 13.6473 12.586 14.1529 11.9264 14.4174C10.9387 14.8091 8.59494 14.7187 7.50342 14.7187C6.4119 14.7187 4.0648 14.8058 3.08043 14.4174C2.42418 14.1562 1.9186 13.6507 1.65409 12.9911C1.26235 12.0033 1.35275 9.65958 1.35275 8.56806C1.35275 7.47654 1.26569 5.12945 1.65409 4.14507C1.91525 3.48882 2.42083 2.98324 3.08043 2.71873C4.06815 2.32699 6.4119 2.41739 7.50342 2.41739C8.59494 2.41739 10.942 2.33034 11.9264 2.71873C12.5827 2.97989 13.0882 3.48547 13.3527 4.14507C13.7445 5.13279 13.6541 7.47654 13.6541 8.56806C13.6541 9.65958 13.7445 12.0067 13.3527 12.9911Z" fill="white"/>
</g>
<defs>
<clipPath id="clip0_50_262">
<rect width="15" height="17.1429" fill="white"/>
</clipPath>
</defs>
</svg>
