<svg width="15" height="18" viewBox="0 0 15 18" fill="none" xmlns="http://www.w3.org/2000/svg">
<path d="M13.9286 1.07141H1.06808C0.478795 1.07141 0 1.5569 0 2.15288L0 14.9899C0 15.5859 0.478795 16.0714 1.06808 16.0714H13.9286C14.5179 16.0714 15 15.5859 15 14.9899V2.15288C15 1.5569 14.5179 1.07141 13.9286 1.07141ZM4.53348 13.9286H2.31027V6.77007H4.53683V13.9286H4.53348ZM3.42187 5.79239C2.70871 5.79239 2.13281 5.21315 2.13281 4.50333C2.13281 3.79351 2.70871 3.21427 3.42187 3.21427C4.1317 3.21427 4.71094 3.79351 4.71094 4.50333C4.71094 5.2165 4.13504 5.79239 3.42187 5.79239ZM12.8672 13.9286H10.644V10.4464C10.644 9.61605 10.6272 8.54797 9.48884 8.54797C8.33036 8.54797 8.1529 9.45199 8.1529 10.3861V13.9286H5.92969V6.77007H8.0625V7.74775H8.09263C8.39062 7.18525 9.11719 6.59262 10.1987 6.59262C12.4487 6.59262 12.8672 8.07587 12.8672 10.0044V13.9286Z" fill="white"/>
</svg>
