<svg width="15" height="15" viewBox="0 0 15 15" fill="none" xmlns="http://www.w3.org/2000/svg">
<path d="M2.1875 12.5C1.9375 12.5 1.71875 12.4062 1.53125 12.2188C1.34375 12.0312 1.25 11.8125 1.25 11.5625V3.4375C1.25 3.1875 1.34375 2.96875 1.53125 2.78125C1.71875 2.59375 1.9375 2.5 2.1875 2.5H12.8125C13.0625 2.5 13.2812 2.59375 13.4688 2.78125C13.6562 2.96875 13.75 3.1875 13.75 3.4375V11.5625C13.75 11.8125 13.6562 12.0312 13.4688 12.2188C13.2812 12.4062 13.0625 12.5 12.8125 12.5H2.1875ZM7.5 7.78125L2.1875 4.29688V11.5625H12.8125V4.29688L7.5 7.78125ZM7.5 6.84375L12.75 3.4375H2.26562L7.5 6.84375ZM2.1875 4.29688V3.4375V11.5625V4.29688Z" fill="#404040"/>
</svg>
