<svg width="50" height="50" viewBox="0 0 50 50" fill="none" xmlns="http://www.w3.org/2000/svg">
<path d="M23.8542 45.7813C21.1112 45.6424 18.5417 45 16.1459 43.8542C13.7501 42.7084 11.6667 41.2066 9.89591 39.349C8.12508 37.4913 6.72751 35.3339 5.70321 32.8766C4.6789 30.4194 4.16675 27.7939 4.16675 25C4.16675 22.1181 4.71362 19.4097 5.80737 16.875C6.90112 14.3403 8.3855 12.1354 10.2605 10.2604C12.1355 8.38544 14.3404 6.90106 16.8751 5.80731C19.4098 4.71356 22.1181 4.16669 25.0001 4.16669C30.1737 4.16669 34.6702 5.79863 38.4897 9.06252C42.3091 12.3264 44.6529 16.4236 45.5209 21.3542H42.3438C41.7536 18.4375 40.5209 15.8334 38.6459 13.5417C36.7709 11.25 34.4272 9.53127 31.6147 8.38544V9.32294C31.6147 10.5382 31.198 11.5972 30.3647 12.5C29.5313 13.4028 28.507 13.8542 27.2917 13.8542H22.7605V18.3854C22.7605 18.961 22.5261 19.4434 22.0574 19.8327C21.5886 20.222 21.0591 20.4167 20.4688 20.4167H16.1459V25H21.8751V31.5104H18.3855L7.7605 20.8854C7.58689 21.5799 7.46536 22.2685 7.39591 22.9514C7.32647 23.6343 7.29175 24.3171 7.29175 25C7.29175 29.6875 8.87161 33.7327 12.0313 37.1354C15.1911 40.5382 19.132 42.3785 23.8542 42.6563V45.7813ZM44.2709 44.4271L37.2917 37.4479C36.5626 37.9688 35.7726 38.3681 34.922 38.6459C34.0713 38.9236 33.2021 39.0625 32.3144 39.0625C29.8486 39.0625 27.7527 38.2011 26.0266 36.4782C24.3006 34.7554 23.4376 32.6634 23.4376 30.2022C23.4376 27.741 24.299 25.6511 26.0219 23.9323C27.7447 22.2136 29.8367 21.3542 32.2979 21.3542C34.7591 21.3542 36.849 22.2172 38.5678 23.9433C40.2865 25.6693 41.1459 27.7652 41.1459 30.231C41.1459 31.1187 40.9983 31.9879 40.7032 32.8386C40.4081 33.6893 40.0174 34.4965 39.5313 35.2604L46.5105 42.1875L44.2709 44.4271ZM32.2844 35.9375C33.8865 35.9375 35.2431 35.3844 36.3542 34.2782C37.4654 33.172 38.0209 31.8178 38.0209 30.2157C38.0209 28.6136 37.4678 27.257 36.3616 26.1459C35.2554 25.0347 33.9012 24.4792 32.2991 24.4792C30.697 24.4792 29.3404 25.0323 28.2292 26.1385C27.1181 27.2447 26.5626 28.5989 26.5626 30.201C26.5626 31.8031 27.1157 33.1597 28.2219 34.2709C29.3281 35.382 30.6823 35.9375 32.2844 35.9375Z" fill="#1ABF8F"/>
</svg>
