<svg width="80" height="80" viewBox="0 0 80 80" fill="none" xmlns="http://www.w3.org/2000/svg">
<path d="M44.9999 45C42.2221 45 39.861 44.0278 37.9166 42.0833C35.9721 40.1389 34.9999 37.7778 34.9999 35C34.9999 32.2222 35.9721 29.8611 37.9166 27.9167C39.861 25.9722 42.2221 25 44.9999 25C47.7777 25 50.1388 25.9722 52.0833 27.9167C54.0277 29.8611 54.9999 32.2222 54.9999 35C54.9999 37.7778 54.0277 40.1389 52.0833 42.0833C50.1388 44.0278 47.7777 45 44.9999 45ZM18.3333 56.6667C16.9583 56.6667 15.7812 56.1771 14.802 55.1979C13.8228 54.2188 13.3333 53.0417 13.3333 51.6667V18.3333C13.3333 16.9583 13.8228 15.7813 14.802 14.8021C15.7812 13.8229 16.9583 13.3333 18.3333 13.3333H71.6666C73.0416 13.3333 74.2187 13.8229 75.1978 14.8021C76.177 15.7813 76.6666 16.9583 76.6666 18.3333V51.6667C76.6666 53.0417 76.177 54.2188 75.1978 55.1979C74.2187 56.1771 73.0416 56.6667 71.6666 56.6667H18.3333ZM26.6666 51.6667H63.3333C63.3333 49.3333 64.1388 47.3611 65.7499 45.75C67.361 44.1389 69.3333 43.3333 71.6666 43.3333V26.6667C69.3333 26.6667 67.361 25.8611 65.7499 24.25C64.1388 22.6389 63.3333 20.6667 63.3333 18.3333H26.6666C26.6666 20.6667 25.861 22.6389 24.2499 24.25C22.6388 25.8611 20.6666 26.6667 18.3333 26.6667V43.3333C20.6666 43.3333 22.6388 44.1389 24.2499 45.75C25.861 47.3611 26.6666 49.3333 26.6666 51.6667ZM66.6666 66.6667H8.33325C6.95825 66.6667 5.78117 66.1771 4.802 65.1979C3.82284 64.2188 3.33325 63.0417 3.33325 61.6667V23.3333H8.33325V61.6667H66.6666V66.6667Z" fill="#1ABF8F"/>
</svg>
