<svg width="15" height="18" viewBox="0 0 15 18" fill="none" xmlns="http://www.w3.org/2000/svg">
<path d="M12.7533 3.2511C11.3504 1.84485 9.48214 1.07141 7.49665 1.07141C3.39844 1.07141 0.0636161 4.40623 0.0636161 8.50445C0.0636161 9.8136 0.405134 11.0926 1.05469 12.221L0 16.0714L3.94085 15.0368C5.02567 15.6294 6.24777 15.9408 7.4933 15.9408H7.49665C11.5915 15.9408 15 12.606 15 8.50779C15 6.5223 14.1562 4.65735 12.7533 3.2511ZM7.49665 14.6886C6.38504 14.6886 5.29687 14.3906 4.34933 13.8281L4.125 13.6942L1.78795 14.3069L2.41071 12.0268L2.26339 11.7924C1.64397 10.808 1.3192 9.67297 1.3192 8.50445C1.3192 5.09931 4.09152 2.32699 7.5 2.32699C9.15067 2.32699 10.7009 2.96985 11.8661 4.13838C13.0312 5.3069 13.7478 6.85713 13.7444 8.50779C13.7444 11.9163 10.9018 14.6886 7.49665 14.6886ZM10.885 10.0614C10.7009 9.96762 9.78683 9.51896 9.61607 9.45869C9.44531 9.39507 9.32143 9.36494 9.19755 9.55244C9.07366 9.73994 8.71875 10.1551 8.60826 10.2823C8.50112 10.4062 8.39062 10.423 8.20647 10.3292C7.11496 9.78346 6.39844 9.35489 5.67857 8.1194C5.48772 7.79128 5.86942 7.81471 6.22433 7.10489C6.2846 6.98101 6.25446 6.87387 6.20759 6.78012C6.16071 6.68637 5.78906 5.7723 5.63504 5.40065C5.48438 5.03905 5.33036 5.08927 5.21652 5.08257C5.10938 5.07588 4.98549 5.07588 4.86161 5.07588C4.73772 5.07588 4.53683 5.12275 4.36607 5.3069C4.19531 5.4944 3.71652 5.94306 3.71652 6.85713C3.71652 7.77119 4.38281 8.65512 4.47321 8.779C4.56696 8.90288 5.78237 10.7779 7.64732 11.5848C8.82589 12.0937 9.28795 12.1373 9.87723 12.0502C10.2355 11.9966 10.9754 11.6015 11.1295 11.1663C11.2835 10.731 11.2835 10.3594 11.2366 10.2823C11.1931 10.1986 11.0692 10.1518 10.885 10.0614Z" fill="white"/>
</svg>
