<svg width="35" height="35" viewBox="0 0 35 35" fill="none" xmlns="http://www.w3.org/2000/svg">
<path d="M32.3585 9.22939C32.3585 8.50121 32.9498 7.9109 33.6792 7.9109C34.4087 7.9109 35 8.50121 35 9.22939C35 9.95758 34.4087 10.5479 33.6792 10.5479C32.9498 10.5479 32.3585 9.95758 32.3585 9.22939Z" fill="white"/>
<path d="M32.3585 1.31843C32.3585 0.590249 32.9498 -6.05918e-05 33.6792 -6.05918e-05C34.4087 -6.05918e-05 35 0.590249 35 1.31843C35 2.04662 34.4087 2.63693 33.6792 2.63693C32.9498 2.63693 32.3585 2.04662 32.3585 1.31843Z" fill="white"/>
<path d="M23.7736 25.0513C23.7736 24.3231 24.3649 23.7328 25.0943 23.7328C25.8238 23.7328 26.4151 24.3231 26.4151 25.0513C26.4151 25.7795 25.8238 26.3698 25.0943 26.3698C24.3649 26.3698 23.7736 25.7795 23.7736 25.0513Z" fill="white"/>
<path d="M23.7736 17.1404C23.7736 16.4122 24.3649 15.8219 25.0943 15.8219C25.8238 15.8219 26.4151 16.4122 26.4151 17.1404C26.4151 17.8685 25.8238 18.4588 25.0943 18.4588C24.3649 18.4588 23.7736 17.8685 23.7736 17.1404Z" fill="white"/>
<path d="M24.434 9.22939C24.434 8.50121 25.0253 7.9109 25.7547 7.9109C26.4841 7.9109 27.0755 8.50121 27.0755 9.22939C27.0755 9.95758 26.4841 10.5479 25.7547 10.5479C25.0253 10.5479 24.434 9.95758 24.434 9.22939Z" fill="white"/>
<path d="M24.434 1.31843C24.434 0.590249 25.0253 -6.05918e-05 25.7547 -6.05918e-05C26.4841 -6.05918e-05 27.0755 0.590249 27.0755 1.31843C27.0755 2.04662 26.4841 2.63693 25.7547 2.63693C25.0253 2.63693 24.434 2.04662 24.434 1.31843Z" fill="white"/>
<path d="M15.8491 25.0513C15.8491 24.3231 16.4404 23.7328 17.1698 23.7328C17.8992 23.7328 18.4906 24.3231 18.4906 25.0513C18.4906 25.7795 17.8992 26.3698 17.1698 26.3698C16.4404 26.3698 15.8491 25.7795 15.8491 25.0513Z" fill="white"/>
<path d="M15.8491 17.1404C15.8491 16.4122 16.4404 15.8219 17.1698 15.8219C17.8992 15.8219 18.4906 16.4122 18.4906 17.1404C18.4906 17.8685 17.8992 18.4588 17.1698 18.4588C16.4404 18.4588 15.8491 17.8685 15.8491 17.1404Z" fill="white"/>
<path d="M16.5094 9.22939C16.5094 8.50121 17.1008 7.9109 17.8302 7.9109C18.5596 7.9109 19.1509 8.50121 19.1509 9.22939C19.1509 9.95758 18.5596 10.5479 17.8302 10.5479C17.1008 10.5479 16.5094 9.95758 16.5094 9.22939Z" fill="white"/>
<path d="M16.5094 1.31843C16.5094 0.590249 17.1008 -6.05918e-05 17.8302 -6.05918e-05C18.5596 -6.05918e-05 19.1509 0.590249 19.1509 1.31843C19.1509 2.04662 18.5596 2.63693 17.8302 2.63693C17.1008 2.63693 16.5094 2.04662 16.5094 1.31843Z" fill="white"/>
<path d="M7.92453 32.9623C7.92453 32.2341 8.51585 31.6438 9.24528 31.6438C9.97472 31.6438 10.566 32.2341 10.566 32.9623C10.566 33.6905 9.97472 34.2808 9.24528 34.2808C8.51585 34.2808 7.92453 33.6905 7.92453 32.9623Z" fill="white"/>
<path d="M7.92453 25.0513C7.92453 24.3231 8.51585 23.7328 9.24528 23.7328C9.97472 23.7328 10.566 24.3231 10.566 25.0513C10.566 25.7795 9.97472 26.3698 9.24528 26.3698C8.51585 26.3698 7.92453 25.7795 7.92453 25.0513Z" fill="white"/>
<path d="M7.92453 17.1404C7.92453 16.4122 8.51585 15.8219 9.24528 15.8219C9.97472 15.8219 10.566 16.4122 10.566 17.1404C10.566 17.8685 9.97472 18.4588 9.24528 18.4588C8.51585 18.4588 7.92453 17.8685 7.92453 17.1404Z" fill="white"/>
<path d="M8.58491 9.22939C8.58491 8.50121 9.17623 7.9109 9.90566 7.9109C10.6351 7.9109 11.2264 8.50121 11.2264 9.22939C11.2264 9.95758 10.6351 10.5479 9.90566 10.5479C9.17623 10.5479 8.58491 9.95758 8.58491 9.22939Z" fill="white"/>
<path d="M8.58491 1.31843C8.58491 0.590249 9.17623 -6.05918e-05 9.90566 -6.05918e-05C10.6351 -6.05918e-05 11.2264 0.590249 11.2264 1.31843C11.2264 2.04662 10.6351 2.63693 9.90566 2.63693C9.17623 2.63693 8.58491 2.04662 8.58491 1.31843Z" fill="white"/>
<path d="M8.34466e-07 32.9623C8.34466e-07 32.2341 0.591323 31.6438 1.32076 31.6438C2.05019 31.6438 2.64151 32.2341 2.64151 32.9623C2.64151 33.6905 2.05019 34.2808 1.32076 34.2808C0.591323 34.2808 8.34466e-07 33.6905 8.34466e-07 32.9623Z" fill="white"/>
<path d="M8.34466e-07 25.0513C8.34466e-07 24.3231 0.591323 23.7328 1.32076 23.7328C2.05019 23.7328 2.64151 24.3231 2.64151 25.0513C2.64151 25.7795 2.05019 26.3698 1.32076 26.3698C0.591323 26.3698 8.34466e-07 25.7795 8.34466e-07 25.0513Z" fill="white"/>
<path d="M8.34466e-07 17.1404C8.34466e-07 16.4122 0.591323 15.8219 1.32076 15.8219C2.05019 15.8219 2.64151 16.4122 2.64151 17.1404C2.64151 17.8685 2.05019 18.4588 1.32076 18.4588C0.591323 18.4588 8.34466e-07 17.8685 8.34466e-07 17.1404Z" fill="white"/>
<path d="M0.660378 9.22939C0.660378 8.50121 1.2517 7.9109 1.98113 7.9109C2.71057 7.9109 3.30189 8.50121 3.30189 9.22939C3.30189 9.95758 2.71057 10.5479 1.98113 10.5479C1.2517 10.5479 0.660378 9.95758 0.660378 9.22939Z" fill="white"/>
<path d="M0.660378 1.31843C0.660378 0.590249 1.2517 -6.05918e-05 1.98113 -6.05918e-05C2.71057 -6.05918e-05 3.30189 0.590249 3.30189 1.31843C3.30189 2.04662 2.71057 2.63693 1.98113 2.63693C1.2517 2.63693 0.660378 2.04662 0.660378 1.31843Z" fill="white"/>
</svg>
